#!OML:ASF F:\VICON\USERDATA\INSTALL\Justin_Nancy\Justin_Nancy.ASF
:FULLY-SPECIFIED
:DEGREES
114
root 1.30615 16.9109 -5.89085 -0.894731 2.93371 7.41558
lowerback 6.5189 -2.74879 -7.99508
upperback -0.353263 -4.21476 1.88825
thorax -3.30969 -1.94352 6.84314
lowerneck -17.3018 -2.60174 -9.32383
upperneck 21.7366 -1.86338 3.43615
head 9.90417 -1.24502 2.50562
rclavicle -2.58917e-014 1.59028e-014
rhumerus -48.0319 -19.6988 -69.6192
rradius 25.0476
rwrist 14.0532
rhand -13.5015 13.8131
rfingers 7.12502
rthumb 12.6098 -15.7863
lclavicle -2.58917e-014 1.59028e-014
lhumerus -25.3345 1.83379 84.3779
lradius 39.2035
lwrist -1.38841
lhand -18.8253 25.1558
lfingers 7.12502
lthumb 7.47374 55.0038
rfemur -30.6402 0.872578 11.6976
rtibia 20.9437
rfoot -4.40419 -8.68744
rtoes -13.3083
lfemur 17.3524 -5.43465 -30.1136
ltibia 22.7871
lfoot -12.2252 -4.36523
ltoes -20.9622
115
root 1.28105 16.9381 -5.62145 -0.986291 2.83843 7.24807
lowerback 6.60911 -2.71147 -7.74481
upperback -0.506966 -4.1578 1.88278
thorax -3.54935 -1.90266 6.70493
lowerneck -16.9553 -2.51319 -9.35478
upperneck 21.7651 -1.78813 3.51579
head 9.84462 -1.20687 2.55064
rclavicle 1.41386e-014 3.18055e-014
rhumerus -48.5706 -20.2668 -68.961
rradius 24.559
rwrist 15.2758
rhand -13.8982 14.0976
rfingers 7.12502
rthumb 12.2273 -15.525
lclavicle 1.41386e-014 3.18055e-014
lhumerus -26.0365 2.02082 84.3222
lradius 39.7577
lwrist -1.36013
lhand -19.1251 23.0541
lfingers 7.12502
lthumb 7.18441 52.9121
rfemur -30.849 1.13708 11.8216
rtibia 22.4186
rfoot -3.09798 -7.87141
rtoes -12.7536
lfemur 17.3257 -5.56239 -29.945
ltibia 24.1873
lfoot -10.2355 -4.91221
ltoes -21.7861
116
root 1.25669 16.9549 -5.356 -1.17946 2.72509 6.84461
lowerback 6.79165 -2.63369 -7.26516
upperback -0.572267 -4.0284 1.94916
thorax -3.76929 -1.83444 6.50973
lowerneck -16.7867 -2.50417 -9.33276
upperneck 21.7844 -1.80834 3.54983
head 9.8211 -1.21216 2.55703
rclavicle 4.25399e-014 -4.77083e-015
rhumerus -48.777 -21.8835 -67.6221
rradius 23.506
rwrist 17.015
rhand -13.8941 13.8154
rfingers 7.12502
rthumb 12.2312 -15.807
lclavicle 4.25399e-014 -4.77083e-015
lhumerus -26.5406 2.33515 84.2975
lradius 40.1827
lwrist -1.49806
lhand -19.847 17.4542
lfingers 7.12502
lthumb 6.48749 47.3348
rfemur -30.7988 1.18845 12.3205
rtibia 23.6699
rfoot -2.18473 -6.76643
rtoes -13.5208
lfemur 17.0917 -5.59615 -29.5075
ltibia 25.9498
lfoot -8.08802 -5.41394
ltoes -23.8575
117
root 1.23033 16.9745 -5.08841 -1.39703 2.44716 6.17507
lowerback 6.84746 -2.53774 -6.6297
upperback -0.525517 -3.84204 2.15966
thorax -3.80709 -1.75274 6.35985
lowerneck -16.7059 -2.50111 -9.43867
upperneck 21.78 -1.80059 3.62
head 9.80572 -1.20981 2.60064
rclavicle -3.29983e-014 7.95139e-015
rhumerus -48.7742 -22.5687 -67.0415
rradius 23.201
rwrist 17.1402
rhand -13.6499 12.6749
rfingers 7.12502
rthumb 12.4667 -16.9332
lclavicle -3.29983e-014 7.95139e-015
lhumerus -26.7432 2.81719 84.3426
lradius 40.3067
lwrist -1.53772
lhand -22.886 20.7937
lfingers 7.12502
lthumb 3.55319 50.7438
rfemur -30.4554 1.3914 13.181
rtibia 24.6602
rfoot -1.20788 -5.01518
rtoes -17.4201
lfemur 16.5792 -5.52598 -28.7934
ltibia 28.1479
lfoot -5.67777 -5.59103
ltoes -26.9097
118
root 1.20637 16.9855 -4.82602 -1.67073 2.05338 5.40343
lowerback 6.92343 -2.47549 -5.85668
upperback -0.48186 -3.68859 2.3986
thorax -3.85871 -1.68931 6.16482
lowerneck -16.6004 -2.35324 -9.51379
upperneck 21.9533 -1.57336 3.57046
head 9.83185 -1.12132 2.62862
rclavicle 1.17283e-014 -6.36111e-015
rhumerus -49.0771 -23.3185 -66.0303
rradius 22.3865
rwrist 19.0191
rhand -14.8365 15.4391
rfingers 7.12502
rthumb 11.3224 -14.2353
lclavicle 1.17283e-014 -6.36111e-015
lhumerus -27.0437 3.29045 84.3437
lradius 40.2704
lwrist -1.22066
lhand -25.6247 20.7195
lfingers 7.12502
lthumb 0.908176 50.6973
rfemur -29.8992 1.85696 14.1159
rtibia 25.4326
rfoot -0.112587 -3.21286
rtoes -19.0487
lfemur 15.8745 -5.11953 -27.865
ltibia 30.6832
lfoot -2.54299 -6.77852
ltoes -28.261
119
root 1.18239 16.9981 -4.56767 -1.87509 1.73098 4.66211
lowerback 6.9474 -2.43988 -5.09496
upperback -0.463312 -3.56972 2.60608
thorax -3.9016 -1.64291 5.94251
lowerneck -16.6516 -2.27818 -9.57215
upperneck 22.2775 -1.44428 3.55188
head 9.94841 -1.07602 2.65364
rclavicle 6.21202e-015 -2.38542e-014
rhumerus -48.9872 -23.2749 -66.14
rradius 22.6587
rwrist 18.3951
rhand -13.9464 14.0437
rfingers 7.12502
rthumb 12.1808 -15.5817
lclavicle 6.21202e-015 -2.38542e-014
lhumerus -27.5633 3.67832 84.3449
lradius 40.3691
lwrist -0.818723
lhand -26.8462 21.0955
lfingers 7.12502
lthumb -0.271534 51.0751
rfemur -29.312 2.08459 15.1064
rtibia 26.1081
rfoot 0.83808 -1.91048
rtoes -17.5208
lfemur 14.8345 -4.67752 -26.8819
ltibia 33.3225
lfoot 1.31994 -7.79192
ltoes -28.3959
